<svg width="12" height="18" viewBox="0 0 12 18" fill="none" xmlns="http://www.w3.org/2000/svg">
<path d="M5.99958 1.28571C6.59462 1.28571 7.17632 1.46217 7.67107 1.79276C8.16583 2.12335 8.55141 2.59318 8.77912 3.14293C9.00684 3.69267 9.06644 4.29762 8.95035 4.88123C8.83427 5.46483 8.54771 6.00091 8.12695 6.42167C7.7062 6.84242 7.17012 7.12893 6.58651 7.24501C6.00291 7.3611 5.39801 7.30155 4.84827 7.07384C4.29852 6.84612 3.82863 6.46049 3.49805 5.96573C3.16746 5.47098 2.991 4.88933 2.991 4.29429C2.991 3.49637 3.308 2.73109 3.87221 2.16687C4.43643 1.60265 5.20166 1.28571 5.99958 1.28571ZM5.99958 0C5.15195 0 4.32337 0.251352 3.61858 0.722273C2.9138 1.19319 2.36449 1.8625 2.04011 2.64561C1.71574 3.42872 1.63085 4.29048 1.79621 5.12183C1.96158 5.95317 2.36977 6.71679 2.96914 7.31616C3.5685 7.91553 4.33212 8.32372 5.16347 8.48908C5.99482 8.65445 6.85652 8.56956 7.63963 8.24519C8.42274 7.92081 9.0921 7.3715 9.56302 6.66671C10.0339 5.96193 10.2853 5.13335 10.2853 4.28571C10.2853 3.14907 9.83376 2.05899 9.03003 1.25527C8.2263 0.451539 7.13623 0 5.99958 0V0Z" fill="#6852FB"/>
<path d="M7.71429 11.5371C8.50994 11.5371 9.27298 11.8532 9.83559 12.4158C10.3982 12.9784 10.7143 13.7415 10.7143 14.5371V15.4543C10.7143 15.5679 10.6692 15.677 10.5888 15.7573C10.5084 15.8377 10.3994 15.8828 10.2857 15.8828H1.71429C1.60062 15.8828 1.49159 15.8377 1.41122 15.7573C1.33085 15.677 1.28571 15.5679 1.28571 15.4543V14.5371C1.28571 13.7415 1.6018 12.9784 2.16441 12.4158C2.72702 11.8532 3.49006 11.5371 4.28571 11.5371H7.71429ZM7.71429 10.2514H4.28571C3.14907 10.2514 2.05899 10.7029 1.25527 11.5067C0.451539 12.3104 0 13.4005 0 14.5371V15.4543C0 15.9089 0.180584 16.345 0.502075 16.6665C0.823566 16.988 1.25963 17.1686 1.71429 17.1686H10.2857C10.7404 17.1686 11.1764 16.988 11.4979 16.6665C11.8194 16.345 12 15.9089 12 15.4543V14.5371C12 13.4005 11.5485 12.3104 10.7447 11.5067C9.94101 10.7029 8.85093 10.2514 7.71429 10.2514V10.2514Z" fill="#6852FB"/>
</svg>
