<svg width="247" height="46" viewBox="0 0 247 46" fill="none" xmlns="http://www.w3.org/2000/svg">
<path d="M77.042 23.9249V14.723C77.042 14.0094 77.4196 13.6338 78.1372 13.6338H79.7611C80.4409 13.6338 80.8186 14.0094 80.8186 14.723V24.0751C80.8186 26.8169 82.5936 28.6948 85.2372 28.6948C87.8808 28.6948 89.6558 26.8169 89.6558 24.0751V14.723C89.6558 14.0094 90.0335 13.6338 90.751 13.6338H92.2617C92.9415 13.6338 93.3569 14.0094 93.3569 14.723V23.9249C93.3569 28.8075 90.109 32.0375 85.275 32.0375C80.3276 32.0751 77.042 28.8075 77.042 23.9249ZM117.905 14.8732V30.9108C117.905 31.7371 117.338 32.0751 116.658 32.0751H116.432C115.79 32.0751 115.337 31.6995 114.808 31.061L105.857 20.3568V30.8357C105.857 31.5493 105.48 31.9624 104.8 31.9624H103.214C102.534 31.9624 102.119 31.5493 102.119 30.8357V14.7981C102.119 13.9718 102.685 13.6338 103.365 13.6338H103.591C104.233 13.6338 104.687 14.0094 105.215 14.6479L114.166 25.3521V14.8732C114.166 14.1596 114.544 13.784 115.223 13.784H116.81C117.527 13.784 117.905 14.1596 117.905 14.8732ZM126.969 30.9108V14.723C126.969 14.0094 127.346 13.6338 128.064 13.6338H129.688C130.405 13.6338 130.745 14.0469 130.745 14.723V30.9108C130.745 31.6244 130.368 32.0375 129.688 32.0375H128.064C127.384 32.0751 126.969 31.6244 126.969 30.9108ZM153.216 26.9671C153.216 30.0469 150.535 32.0751 146.494 32.0751H140.527C139.998 32.0751 139.696 31.7371 139.696 31.2113V14.4976C139.696 13.9718 139.998 13.6338 140.527 13.6338H146.003C150.006 13.6338 152.158 15.3239 152.158 18.554C152.158 20.3944 151.101 21.6338 149.779 22.385C151.856 23.061 153.216 24.7136 153.216 26.9671ZM141.999 15.5868V21.6714H146.191C148.571 21.6714 149.893 20.5821 149.893 18.6291C149.893 16.6009 148.608 15.5493 146.191 15.5493H141.999V15.5868ZM150.912 26.7793C150.912 24.7887 149.326 23.4742 146.947 23.4742H141.999V30.0845H146.418C149.364 30.0845 150.912 28.9577 150.912 26.7793ZM160.807 24.5258V14.4601C160.807 13.9343 161.071 13.6338 161.6 13.6338H162.28C162.771 13.6338 163.073 13.9343 163.073 14.4601V24.5258C163.073 27.7934 165.225 30.0094 168.436 30.0094C171.683 30.0094 173.798 27.7934 173.798 24.5258V14.4601C173.798 13.9343 174.063 13.6338 174.591 13.6338H175.271C175.762 13.6338 176.027 13.9343 176.027 14.4601V24.5258C176.027 29.0329 173.005 32.0375 168.473 32.0375C163.866 32.0751 160.807 29.0329 160.807 24.5258ZM184.637 31.2113V14.4976C184.637 13.9718 184.939 13.6338 185.468 13.6338H191.737C197.478 13.6338 201.254 17.3145 201.254 22.8357C201.254 28.3944 197.478 32.0751 191.737 32.0751H185.468C184.939 32.0751 184.637 31.6995 184.637 31.2113ZM191.737 30.0469C196.156 30.0469 198.988 27.1925 198.988 22.8357C198.988 18.4789 196.156 15.6244 191.737 15.6244H186.941V30.0094H191.737V30.0469ZM209.412 31.2113V14.9108C209.412 14.385 209.714 14.0845 210.243 14.0845H216.361C221.95 14.0845 225.651 17.6901 225.651 23.0235C225.651 28.4319 221.95 32.0375 216.361 32.0375H210.243C209.714 32.0751 209.412 31.7371 209.412 31.2113ZM216.323 30.0845C220.628 30.0845 223.385 27.3052 223.385 23.061C223.385 18.8169 220.59 16.0375 216.323 16.0375H211.64V30.0845H216.323ZM246.8 14.385L240.04 25.0516V31.2113C240.04 31.7371 239.775 32.0751 239.247 32.0751H238.529C238.038 32.0751 237.736 31.7371 237.736 31.2113V25.1267L230.9 14.385C230.636 14.0094 230.9 13.6338 231.391 13.6338H232.336C232.827 13.6338 233.129 13.8967 233.431 14.4225L238.907 23.1361L244.345 14.4225C244.647 13.8967 244.949 13.6338 245.44 13.6338H246.309C246.762 13.6338 247.027 14.0094 246.8 14.385Z" fill="#3E3E48"/>
<path d="M28.6644 0V22.4601L39.5032 21.5211C40.1452 28.6573 35.4245 35.0047 28.6644 36.6573V45.6338C41.3537 45.6338 51.6261 35.4178 51.6261 22.7981V0H28.6644ZM37.275 17.0892C35.6888 17.0892 34.4048 15.8122 34.4048 14.2347C34.4048 12.6573 35.6888 11.3803 37.275 11.3803C38.8612 11.3803 40.1452 12.6573 40.1452 14.2347C40.1452 15.8122 38.8612 17.0892 37.275 17.0892ZM10.8388 24L22.9617 22.9484V0H0V22.8357C0 35.4554 10.2723 45.6714 22.9617 45.6714V36.9577C16.5415 35.9061 11.4053 30.723 10.8388 24ZM14.3511 11.3803C15.9372 11.3803 17.2213 12.6573 17.2213 14.2347C17.2213 15.8122 15.9372 17.0892 14.3511 17.0892C12.7649 17.0892 11.4809 15.8122 11.4809 14.2347C11.4809 12.6573 12.7649 11.3803 14.3511 11.3803Z" fill="#01D4CF"/>
</svg>
