<?xml version="1.0" encoding="UTF-8"?> <svg xmlns="http://www.w3.org/2000/svg" viewBox="0 0 577 600"><defs><style>.cls-1{fill:#fdfdfd;}.cls-2{fill:#533091;}.cls-3{fill:#272324;}</style></defs><g id="Layer_2" data-name="Layer 2"><g id="Layer_1-2" data-name="Layer 1"><path class="cls-1" d="M577,600H0V0H577ZM4.41,2.3c-1,8.33-.59,174.94.29,178.23H181.83V2.3Zm246.1,78.33,1-.15c1.14,1.41,2.31,2.79,3.4,4.23l42.29,55.62c.79,1,1.43,2.47,2.94,2.49,5.93.08,11.86,0,17.78,0V41.68H296.15V102c-2.2-.66-2.89-2.29-3.85-3.56Q271.59,71.23,251,44a5.89,5.89,0,0,0-5.44-2.68c-4.66.16-9.33,0-14,0-1.14,0-2.36-.17-3.12.9V142.63h22.08ZM504.88,41.54c-.84,2-.55,3.65-.55,5.28q0,26.49,0,53a33,33,0,0,1-.6,8c-2.35,9.47-8.25,14.84-18.13,15.75-11.31,1-19.73-4-22.7-13.53a39.46,39.46,0,0,1-1.77-11.77q0-25.74,0-51.48c0-1.63.37-3.32-.37-4.89-5.18-.86-18.12-.72-21.72.27,0,.62-.14,1.27-.14,1.93q0,29.24,0,58.48a46.33,46.33,0,0,0,1.18,10.88c3.86,16,13.44,26.26,29.88,29.78a59.79,59.79,0,0,0,28.09-.55c12.34-3.25,21.17-10.82,25.68-23a51.09,51.09,0,0,0,3.31-18c0-18.66,0-37.32,0-56,0-1.29.35-2.65-.54-4.1ZM389.81,142.67c1.34-1.66.85-3.39.86-5q.06-15.75,0-31.5a11.25,11.25,0,0,1,1.78-6.55c11.2-17.31,22.26-34.7,33.35-52.08,1.14-1.77,2.17-3.61,3.1-5.18-.41-1-.91-1-1.4-1-7,0-14,.05-21-.06a4,4,0,0,0-3.93,2.42c-2.59,4.45-5.3,8.83-8,13.24L379.53,81.67c-1.48-2.39-2.7-4.32-3.87-6.28-6-10-12-20-17.77-30-1.67-2.9-3.49-4.35-7.07-4.13-5.82.35-11.67.07-17.5.12-1.08,0-2.33-.48-3.3.71-.16,1.61,1.05,2.69,1.81,3.88q16.95,26.76,34,53.44a13.63,13.63,0,0,1,2.2,7.93c-.12,10.5-.07,21,0,31.5,0,1.27-.45,2.66.63,3.87ZM247.17,574.9l-25.63-33.53c-4,.27-7.65-.48-11.07.46v55h12.26V564.14l.9-.24c8.45,11,16.91,22.09,25.12,32.84h10.82V541.66h-12.4Zm49.27-211.33v55.07h12.32V386.07l.83-.36L335.11,419c2.06,0,3.73.09,5.38,0s3.64.6,5.22-.59c.79-19.15.44-50.92-.59-54.66H333.35v31.95l-.81.23-24.71-32.34ZM462.65,596.84a89.12,89.12,0,0,0,12.23,0V562.44l26.34,34.46c3.6,0,7.2.61,10.64-.33,0-18.28,0-36.26,0-54.24a.7.7,0,0,0-.19-.43,4.16,4.16,0,0,0-.66-.47c-3.47.22-7.24-.58-11.27.53v32.95c-2-2.47-3.38-4.06-4.65-5.72q-9.54-12.51-19-25c-1-1.32-1.82-2.8-3.84-2.76-3.11.06-6.23,0-9.56,0ZM109.71,363.4v55.32h12.5v-34L148.42,419c3.68-.21,7.13.45,10.23-.37V363.38c-4.09.26-7.86-.49-11.94.56v32c-2.05-.91-2.77-2.47-3.75-3.75q-10-13.08-20-26.21c-1-1.36-1.93-2.65-3.94-2.57C116.09,363.49,113.11,363.4,109.71,363.4ZM96.64,541.8c-.19.37-.32.51-.32.66L96,573.4c0,.1-.14.25-.25.3-.61.26-.25-.64-.54.09-.65-.81-1.29-1.56-1.89-2.35q-10.26-13.5-20.52-27c-1.09-1.43-2-3.16-4.25-3-3.11.21-6.26-.44-9.29.37v55h11.9V563.51a188.32,188.32,0,0,1,13.72,16.58L97.82,597c2,0,3.61,0,5.27,0s3.59.3,5.22-.31c.92-12.3.53-51.41-.55-55.13C104,541.42,100.26,541.05,96.64,541.8ZM170.28,419c8.78,0,17.12.53,25.38-.11,14.61-1.14,25.43-11.75,25.94-26.63.5-14.6-9.31-26.22-24-28.31-7.78-1.1-15.61-.29-23.42-.48-1.28,0-2.68-.44-3.89.7ZM198.82,509c23.7.32,36.78-23.74,26.11-43.09-8.28-15-28.31-18.52-42.2-9.82-9.22,5.77-13.62,14.56-13.23,25.25C170.07,497.59,182.45,509,198.82,509ZM287.16,391.2c.62-13.17-9.41-28.64-29.24-28.72-19.15-.07-29.91,14.56-29.8,28.85.11,16.35,12.58,28.64,29.35,28.68C274.55,420.05,287.15,407.82,287.16,391.2ZM400,509c17,0,29.75-12.31,29.84-28.76.08-14.42-10.51-28.65-29.3-28.76-19.67-.12-29.85,15.41-29.89,28.84A28.68,28.68,0,0,0,400,509ZM294.17,480.52c0-16.86-12.2-29.29-29.33-29-19,.27-29.51,13.9-29.62,28.59-.13,18.51,14.77,29.09,29.56,29C283.1,509,295.07,494.21,294.17,480.52ZM573.3,548.75a4,4,0,0,0-2-2.48c-7.46-5.29-15.78-6.55-24.66-5.3-11.29,1.58-21.09,10.42-23.37,21.67-2.61,12.89,2,24.67,11.92,30.94,11.08,7,27.92,5.76,38.81-3a3.58,3.58,0,0,0,1.59-2.92c0-7.45,0-14.89,0-22.65H551.38v10.54c4,.91,8.09-.39,11.91.84a29.24,29.24,0,0,1-.12,7c-8.56,6-18.77,3.19-23.27-2-5.32-6.15-5.71-16.56-.6-23.08a15.32,15.32,0,0,1,9.51-6c6.45-1.14,12,1.38,17.12,5.39ZM413.73,577.6a13.4,13.4,0,0,1,1.52-1.06c8.71-4.18,11-12.23,9.56-21-1.26-7.71-7.2-12.61-16.29-13.68s-18.3-.23-27.45-.45a9.29,9.29,0,0,0-1.85.31c-.59,5-.5,50.67.14,55.27,3.85-.14,7.76.37,12-.42V579.82h9.36l11.5,17h14.55C422.28,590.23,418.12,584.09,413.73,577.6Zm-243.8-29.19c-7.34-8.26-23.67-10.12-34.49-5.16s-17.34,16.51-16.3,29c1,12.22,8.77,21.8,20.51,24.75,11.91,3,22.65.26,32.06-7.29V565.24H147.89c.05,3.64-.39,7,.36,10.8h11.62v7.22c-8,5.84-18.69,3.7-23.6-2.13a18.69,18.69,0,0,1,0-23.46c6-7.3,14.24-7.43,26.19-.33A68.21,68.21,0,0,0,169.93,548.41Zm-21.84-74.32H125.8V452.4c-4.38.22-8.32-.56-12.21.56v54.83a54.49,54.49,0,0,0,12.62-.19V486.11h22V508c4.43-.16,8.48.44,12.33-.34v-55.3c-4.27.31-8.21-.43-12.42.5ZM6.14,596.81H48.37V586H18.83V574.79h25.7c-.11-4.06.67-7.63-.65-11.55h-25V552.58h28.9V541.66H6.14ZM285.23,552.6H295.5c3.17,0,6.34.12,9.49,0s6.57.71,9.59-.59V541.7H273.11v55.11h41.7V586H285c.2-4-.46-7.52.56-11.41H311a60,60,0,0,0-.17-11.13H285.23Zm40.82,44.17h41.88V585.83H338c.14-4-.38-7.42.42-11.18H364.2c-.24-3.93.36-7.5-.47-11.45H338.24V552.62c9.94-.07,19.67,0,29.41,0V541.71h-41.6ZM102.82,418.86c-8.14-19.1-16-37.48-23.72-55.7H67.52c-7.87,18.52-15.7,37-23.66,55.68H56.54l5-11.81h23.2c1.71,4,3.39,8,5,11.83Zm-100.58,81c7.45,6.87,16.07,9.44,25.74,9a22.24,22.24,0,0,0,10.89-3.21c5.72-3.52,7.6-8.86,7.33-15.35-.25-6-3.28-9.88-8.49-12.43a65.2,65.2,0,0,0-10.81-3.74,61.92,61.92,0,0,1-6.14-2c-3.13-1.28-4.14-2.74-3.83-5.07s2.24-3.84,5.44-4.18a19.43,19.43,0,0,1,11,2.49c1.6.82,3.16,1.73,4.91,2.7,2.12-3.14,4.53-5.87,6.11-9.47a31.05,31.05,0,0,0-27.34-6C9.23,454.46,4.74,460.35,4.4,468c-.35,7.81,3,12.59,11.27,15.63,2.48.92,5.08,1.54,7.62,2.31,1.91.58,3.85,1.07,5.7,1.79,3.8,1.46,5.2,3.07,4.95,5.41s-2.62,4.32-6.27,4.68a19.64,19.64,0,0,1-5-.22,25.8,25.8,0,0,1-10.06-4.16c-1.05-.7-1.89-1.88-3.74-1.65Zm95.44-8.33C86.23,498.93,78.2,499.3,72,492.73a18.6,18.6,0,0,1-1.21-23.42,15.33,15.33,0,0,1,9-5.91c7-1.61,12.45,1.81,17.74,5.81l7.57-8.83c-9.45-11.72-33.32-12.17-44.16,1-10.6,12.86-8.39,32.9,4.94,42.49,12.37,8.9,32.89,5.83,39.27-5.27C102.69,496.2,100.52,493.47,97.68,491.49Zm341.6-38.83v55.06h12.43V486.81h25.62c.81-5.65.74-8.07-.39-11.91H451.88V463.75H481a58.6,58.6,0,0,0,0-11.09Zm-95.92,44H315.89v-44a74.51,74.51,0,0,0-12.23.07v55.17h39.7Zm-312-77.74V374.82H48.15c-.23-4,.62-7.61-.45-10.91H1.92c.38,3.89-.45,7.49.62,11.4H19.28v43.57Zm153,177.94h11.88v-55.2H184.39Zm252.27-55.26v55.22H449c0-18.54,0-36.85,0-55.22ZM4.43,272.94H181.72a3.23,3.23,0,0,0-.1-3.47H4.22C4,270.77,3.78,271.75,4.43,272.94Z"></path><path class="cls-2" d="M4.41,2.3H181.83V180.53H4.7C3.82,177.24,3.46,10.63,4.41,2.3Zm82,91.77c.57-1.41-.17-2-.41-2.79-3.28-10.48-1.26-19.9,5.54-28.44A55.6,55.6,0,0,1,100,54.42c1.16-1,2.23-1.87,2.16-3.67-.27-6.9-2.26-13.28-5.41-20.06-3.33,7.94-8.34,13.84-13.41,19.73-4.25,4.92-8.11,10.13-10.25,16.36s-1.49,12.06,2.48,17.47A41,41,0,0,0,86.4,94.07Zm43-37.3C125,64.54,118,68.92,110.22,72.71c-7.53,3.67-12.19,10.06-14.77,18-.5,1.52-1.09,3.13-.11,4.67,12.51,1.2,23.2-4.55,29-15.24C128.28,72.87,128.93,65,129.42,56.77Zm-39,35.78c1.22-1.13,1.33-2.69,1.82-4.08,3.06-8.7,8.51-15.34,16.82-19.51,1.93-1,3.83-2,5.79-2.92a6.46,6.46,0,0,0,3.94-5.9c.32-6.3-1.22-12.16-4.54-18.35A47.46,47.46,0,0,1,99.83,59.64a26.24,26.24,0,0,0-3.54,3.53C88.64,71.8,85.81,81.41,90.45,92.55ZM69.25,44.79a74.64,74.64,0,0,1-6.67,15.28c-1.25,2.35-2.75,4.57-3.84,7C54.82,75.75,56.93,84.82,64,90.4c4.1,3.22,11.5,5.27,17.57,4.76-.92-.75-1.66-1.39-2.44-2-11-8.29-14.19-18.74-7.92-31,2.68-5.26,2.06-9.26-.22-13.84Zm13.23,65.74c-.8,1.54-.45,2.89-.32,4.17q1.55,14.85,3.18,29.69c.51,4.61,1.13,9.21,1.66,13.82.17,1.49.66,2.56,2.39,2.46,2-3.35,6.85-44.94,6.64-50.07A74.84,74.84,0,0,0,82.48,110.53Zm-6-4h25.37c0-2.55.51-4.82-.25-6.94H76.5Z"></path><path class="cls-2" d="M250.51,80.63v62H228.43V42.22c.76-1.07,2-.9,3.12-.9,4.67,0,9.34.11,14,0A5.89,5.89,0,0,1,251,44q20.56,27.3,41.31,54.48c1,1.27,1.65,2.9,3.85,3.56V41.68h21.77V142.85c-5.92,0-11.85.05-17.78,0-1.51,0-2.15-1.45-2.94-2.49L254.91,84.71c-1.09-1.44-2.26-2.82-3.4-4.23Z"></path><path class="cls-2" d="M504.88,41.54h21.56c.89,1.45.54,2.81.54,4.1,0,18.66,0,37.32,0,56a51.09,51.09,0,0,1-3.31,18c-4.51,12.15-13.34,19.72-25.68,23a59.79,59.79,0,0,1-28.09.55c-16.44-3.52-26-13.73-29.88-29.78a46.33,46.33,0,0,1-1.18-10.88q0-29.24,0-58.48c0-.66.09-1.31.14-1.93,3.6-1,16.54-1.13,21.72-.27.74,1.57.37,3.26.37,4.89q0,25.74,0,51.48A39.46,39.46,0,0,0,462.89,110c3,9.54,11.39,14.58,22.7,13.53,9.88-.91,15.78-6.28,18.13-15.75a33,33,0,0,0,.6-8q0-26.49,0-53C504.33,45.19,504,43.51,504.88,41.54Z"></path><path class="cls-2" d="M389.81,142.67H368.65c-1.08-1.21-.62-2.6-.63-3.87,0-10.5-.09-21,0-31.5a13.63,13.63,0,0,0-2.2-7.93q-17.13-26.64-34-53.44c-.76-1.19-2-2.27-1.81-3.88,1-1.19,2.22-.7,3.3-.71,5.83-.05,11.68.23,17.5-.12,3.58-.22,5.4,1.23,7.07,4.13,5.8,10.08,11.82,20,17.77,30,1.17,2,2.39,3.89,3.87,6.28l15.05-24.74c2.68-4.41,5.39-8.79,8-13.24a4,4,0,0,1,3.93-2.42c7,.11,14,0,21,.06.49,0,1,.06,1.4,1-.93,1.57-2,3.41-3.1,5.18C414.7,64.91,403.64,82.3,392.44,99.61a11.25,11.25,0,0,0-1.78,6.55q.09,15.75,0,31.5C390.66,139.28,391.15,141,389.81,142.67Z"></path><path class="cls-3" d="M247.17,574.9V541.66h12.4v55.08H248.75c-8.21-10.75-16.67-21.8-25.12-32.84l-.9.24V596.8H210.47v-55c3.42-.94,7.06-.19,11.07-.46Z"></path><path class="cls-3" d="M296.44,363.57h11.39l24.71,32.34.81-.23V363.73h11.77c1,3.74,1.38,35.51.59,54.66-1.58,1.19-3.47.46-5.22.59s-3.32,0-5.38,0l-25.52-33.3-.83.36v32.57H296.44Z"></path><path class="cls-3" d="M462.65,596.84V541.4c3.33,0,6.45.05,9.56,0,2,0,2.84,1.44,3.84,2.76q9.51,12.52,19,25c1.27,1.66,2.64,3.25,4.65,5.72V542c4-1.11,7.8-.31,11.27-.53a4.16,4.16,0,0,1,.66.47.7.7,0,0,1,.19.43c0,18,0,36,0,54.24-3.44.94-7,.3-10.64.33l-26.34-34.46V596.8A89.12,89.12,0,0,1,462.65,596.84Z"></path><path class="cls-3" d="M109.71,363.4c3.4,0,6.38.09,9.35,0,2-.08,2.91,1.21,3.94,2.57q9.94,13.13,20,26.21c1,1.28,1.7,2.84,3.75,3.75v-32c4.08-1.05,7.85-.3,11.94-.56v55.27c-3.1.82-6.55.16-10.23.37L122.21,384.7v34h-12.5Z"></path><path class="cls-3" d="M96.64,541.8c3.62-.75,7.39-.38,11.12-.25,1.08,3.72,1.47,42.83.55,55.13-1.63.61-3.45.25-5.22.31s-3.32,0-5.27,0L84.87,580.09a188.32,188.32,0,0,0-13.72-16.58v33.28H59.25v-55c3-.81,6.18-.16,9.29-.37,2.23-.14,3.16,1.59,4.25,3q10.27,13.5,20.52,27c.6.79,1.24,1.54,1.89,2.35.29-.73-.07.17.54-.09.11-.05.25-.2.25-.3l.33-30.94C96.32,542.31,96.45,542.17,96.64,541.8Z"></path><path class="cls-3" d="M170.28,419V364.13c1.21-1.14,2.61-.73,3.89-.7,7.81.19,15.64-.62,23.42.48,14.7,2.09,24.51,13.71,24,28.31-.51,14.88-11.33,25.49-25.94,26.63C187.4,419.49,179.06,419,170.28,419ZM183,375c0,11.08,0,21.53,0,32a.78.78,0,0,0,.23.41,6.51,6.51,0,0,0,.62.49c2.24,0,4.72,0,7.2,0,12-.08,18.76-7.87,17.11-19.7A14.82,14.82,0,0,0,194.68,375C190.93,374.69,187.12,375,183,375Z"></path><path class="cls-3" d="M198.82,509c-16.37,0-28.75-11.42-29.32-27.66-.39-10.69,4-19.48,13.23-25.25,13.89-8.7,33.92-5.21,42.2,9.82C235.6,485.27,222.52,509.33,198.82,509Zm16.93-28.46C215.83,471,208.24,463,199,463a16.79,16.79,0,0,0-16.59,17c0,9.65,7.46,17.65,16.69,17.52S215.05,490.94,215.75,480.55Z"></path><path class="cls-3" d="M287.16,391.2c0,16.62-12.61,28.85-29.69,28.81-16.77,0-29.24-12.33-29.35-28.68-.11-14.29,10.65-28.92,29.8-28.85C277.75,362.56,287.78,378,287.16,391.2Zm-13,.29C274.22,381.6,267,374,257.61,374s-16.34,7.33-16.44,17c-.11,9.88,7,17.36,16.6,17.37S274.07,401.35,274.15,391.49Z"></path><path class="cls-3" d="M400,509a28.68,28.68,0,0,1-29.35-28.68c0-13.43,10.22-29,29.89-28.84,18.79.11,29.38,14.34,29.3,28.76C429.79,496.7,417.07,509,400,509Zm-16.19-28.89c0,10,7.06,17.33,16.61,17.28,9.38,0,16.37-7.29,16.38-17S409.47,463,400.13,463,383.86,470.39,383.85,480.12Z"></path><path class="cls-3" d="M294.17,480.52c.9,13.69-11.07,28.48-29.39,28.57-14.79.07-29.69-10.51-29.56-29,.11-14.69,10.64-28.32,29.62-28.59C282,451.23,294.19,463.66,294.17,480.52Zm-12.84.11c.12-9.85-7.11-17.58-16.47-17.62-9.19,0-16.5,7.38-16.69,16.92a17.13,17.13,0,0,0,16.61,17.65C274,497.69,281.21,490.3,281.33,480.63Z"></path><path class="cls-3" d="M573.3,548.75l-7.37,8.91c-5.17-4-10.67-6.53-17.12-5.39a15.32,15.32,0,0,0-9.51,6c-5.11,6.52-4.72,16.93.6,23.08,4.5,5.2,14.71,8,23.27,2a29.24,29.24,0,0,0,.12-7c-3.82-1.23-7.86.07-11.91-.84V565h24.21c0,7.76,0,15.2,0,22.65a3.58,3.58,0,0,1-1.59,2.92c-10.89,8.78-27.73,10-38.81,3-9.94-6.27-14.53-18.05-11.92-30.94,2.28-11.25,12.08-20.09,23.37-21.67,8.88-1.25,17.2,0,24.66,5.3A4,4,0,0,1,573.3,548.75Z"></path><path class="cls-3" d="M413.73,577.6c4.39,6.49,8.55,12.63,13,19.24H412.19l-11.5-17h-9.36v16.76c-4.21.79-8.12.28-12,.42-.64-4.6-.73-50.23-.14-55.27a9.29,9.29,0,0,1,1.85-.31c9.15.22,18.32-.62,27.45.45s15,6,16.29,13.68c1.43,8.76-.85,16.81-9.56,21A13.4,13.4,0,0,0,413.73,577.6Zm-22.34-9.11c5.26,0,10.06.49,14.79-.48,4.34-.89,6.65-4,6.39-8.13-.24-3.8-2.88-6.59-7.18-6.85-4.58-.28-9.19-.06-14-.06Z"></path><path class="cls-3" d="M169.93,548.41a68.21,68.21,0,0,1-7.5,8.93c-12-7.1-20.14-7-26.19.33a18.69,18.69,0,0,0,0,23.46c4.91,5.83,15.63,8,23.6,2.13V576H148.25c-.75-3.76-.31-7.16-.36-10.8h23.82v24.42c-9.41,7.55-20.15,10.27-32.06,7.29-11.74-3-19.48-12.53-20.51-24.75-1-12.44,5.5-24,16.3-29S162.59,540.15,169.93,548.41Z"></path><path class="cls-3" d="M148.09,474.09V452.85c4.21-.93,8.15-.19,12.42-.5v55.3c-3.85.78-7.9.18-12.33.34V486.11h-22V507.6a54.49,54.49,0,0,1-12.62.19V453c3.89-1.12,7.83-.34,12.21-.56v21.69Z"></path><path class="cls-3" d="M6.14,596.81V541.66H47.75v10.92H18.85v10.66h25c1.32,3.92.54,7.49.65,11.55H18.83V586H48.37v10.86Z"></path><path class="cls-3" d="M285.23,552.6v10.85h25.62a60,60,0,0,1,.17,11.13H285.55c-1,3.89-.36,7.46-.56,11.41h29.82v10.82h-41.7V541.7h41.47V552c-3,1.3-6.36.44-9.59.59s-6.32,0-9.49,0Z"></path><path class="cls-3" d="M326.05,596.77V541.71h41.6v10.86c-9.74.07-19.47,0-29.41,0V563.2h25.49c.83,3.95.23,7.52.47,11.45H338.44c-.8,3.76-.28,7.22-.42,11.18h29.91v10.94Z"></path><path class="cls-3" d="M102.82,418.86h-13c-1.65-3.88-3.33-7.8-5-11.83H61.57l-5,11.81H43.86c8-18.72,15.79-37.16,23.66-55.68H79.1C86.86,381.38,94.68,399.76,102.82,418.86ZM73.34,378.64a140.36,140.36,0,0,0-7.13,17.18c4.85-.11,9.22.35,14-.34C77.89,389.84,75.74,384.54,73.34,378.64Z"></path><path class="cls-3" d="M2.24,499.82l6.67-8.07c1.85-.23,2.69.95,3.74,1.65a25.8,25.8,0,0,0,10.06,4.16,19.64,19.64,0,0,0,5,.22c3.65-.36,6-2.23,6.27-4.68s-1.15-4-4.95-5.41c-1.85-.72-3.79-1.21-5.7-1.79-2.54-.77-5.14-1.39-7.62-2.31-8.23-3-11.62-7.82-11.27-15.63.34-7.61,4.83-13.5,12.69-15.32a31.05,31.05,0,0,1,27.34,6c-1.58,3.6-4,6.33-6.11,9.47-1.75-1-3.31-1.88-4.91-2.7a19.43,19.43,0,0,0-11-2.49c-3.2.34-5.13,1.82-5.44,4.18s.7,3.79,3.83,5.07a61.92,61.92,0,0,0,6.14,2,65.2,65.2,0,0,1,10.81,3.74c5.21,2.55,8.24,6.43,8.49,12.43.27,6.49-1.61,11.83-7.33,15.35A22.24,22.24,0,0,1,28,508.86C18.31,509.26,9.69,506.69,2.24,499.82Z"></path><path class="cls-3" d="M97.68,491.49c2.84,2,5,4.71,7.45,7.11-6.38,11.1-26.9,14.17-39.27,5.27-13.33-9.59-15.54-29.63-4.94-42.49,10.84-13.17,34.71-12.72,44.16-1l-7.57,8.83c-5.29-4-10.76-7.42-17.74-5.81a15.33,15.33,0,0,0-9,5.91A18.6,18.6,0,0,0,72,492.73C78.2,499.3,86.23,498.93,97.68,491.49Z"></path><path class="cls-3" d="M439.28,452.66h41.63a58.6,58.6,0,0,1,0,11.09H451.88V474.9h25.06c1.13,3.84,1.2,6.26.39,11.91H451.71v20.91H439.28Z"></path><path class="cls-3" d="M343.36,496.62v11.2h-39.7V452.65a74.51,74.51,0,0,1,12.23-.07v44Z"></path><path class="cls-3" d="M31.36,418.88H19.28V375.31H2.54c-1.07-3.91-.24-7.51-.62-11.4H47.7c1.07,3.3.22,6.92.45,10.91H31.36Z"></path><path class="cls-3" d="M184.39,596.82v-55.2h11.88v55.2Z"></path><path class="cls-3" d="M436.66,541.56H449c0,18.37,0,36.68,0,55.22H436.66Z"></path><path class="cls-3" d="M4.43,272.94c-.65-1.19-.41-2.17-.21-3.47h177.4a3.23,3.23,0,0,1,.1,3.47Z"></path><path class="cls-1" d="M86.4,94.07a41,41,0,0,1-10.85-9.82c-4-5.41-4.61-11.26-2.48-17.47s6-11.44,10.25-16.36c5.07-5.89,10.08-11.79,13.41-19.73,3.15,6.78,5.14,13.16,5.41,20.06.07,1.8-1,2.72-2.16,3.67a55.6,55.6,0,0,0-8.45,8.42c-6.8,8.54-8.82,18-5.54,28.44C86.23,92,87,92.66,86.4,94.07Z"></path><path class="cls-1" d="M129.42,56.77c-.49,8.21-1.14,16.1-5.07,23.33-5.81,10.69-16.5,16.44-29,15.24-1-1.54-.39-3.15.11-4.67,2.58-7.9,7.24-14.29,14.77-18C118,68.92,125,64.54,129.42,56.77Z"></path><path class="cls-1" d="M90.45,92.55c-4.64-11.14-1.81-20.75,5.84-29.38a26.24,26.24,0,0,1,3.54-3.53,47.46,47.46,0,0,0,14.45-17.85c3.32,6.19,4.86,12.05,4.54,18.35a6.46,6.46,0,0,1-3.94,5.9c-2,.9-3.86,1.95-5.79,2.92-8.31,4.17-13.76,10.81-16.82,19.51C91.78,89.86,91.67,91.42,90.45,92.55Z"></path><path class="cls-1" d="M69.25,44.79,71,48.33c2.28,4.58,2.9,8.58.22,13.84-6.27,12.27-3.12,22.72,7.92,31,.78.59,1.52,1.23,2.44,2-6.07.51-13.47-1.54-17.57-4.76-7.09-5.58-9.2-14.65-5.28-23.35,1.09-2.41,2.59-4.63,3.84-7A74.64,74.64,0,0,0,69.25,44.79Z"></path><path class="cls-1" d="M82.48,110.53A74.84,74.84,0,0,1,96,110.6c.21,5.13-4.68,46.72-6.64,50.07-1.73.1-2.22-1-2.39-2.46-.53-4.61-1.15-9.21-1.66-13.82q-1.64-14.83-3.18-29.69C82,113.42,81.68,112.07,82.48,110.53Z"></path><path class="cls-1" d="M76.5,106.57V99.63h25.12c.76,2.12.29,4.39.25,6.94Z"></path><path class="cls-1" d="M183,375c4.1,0,7.91-.26,11.66.06a14.82,14.82,0,0,1,13.51,13.12c1.65,11.83-5.12,19.62-17.11,19.7-2.48,0-5,0-7.2,0a6.51,6.51,0,0,1-.62-.49.78.78,0,0,1-.23-.41C183,396.48,183,386,183,375Z"></path><path class="cls-1" d="M215.75,480.55c-.7,10.39-7.34,16.86-16.64,17s-16.74-7.87-16.69-17.52A16.79,16.79,0,0,1,199,463C208.24,463,215.83,471,215.75,480.55Z"></path><path class="cls-1" d="M274.15,391.49c-.08,9.86-6.91,16.92-16.38,16.91s-16.71-7.49-16.6-17.37c.1-9.69,7.17-17,16.44-17S274.22,381.6,274.15,391.49Z"></path><path class="cls-1" d="M383.85,480.12c0-9.73,7-17.12,16.28-17.11s16.72,7.69,16.71,17.41-7,16.94-16.38,17C390.91,497.45,383.85,490.1,383.85,480.12Z"></path><path class="cls-1" d="M281.33,480.63c-.12,9.67-7.34,17.06-16.55,16.95a17.13,17.13,0,0,1-16.61-17.65c.19-9.54,7.5-17,16.69-16.92C274.22,463.05,281.45,470.78,281.33,480.63Z"></path><path class="cls-1" d="M391.39,568.49V553c4.81,0,9.42-.22,14,.06,4.3.26,6.94,3.05,7.18,6.85.26,4.18-2.05,7.24-6.39,8.13C401.45,569,396.65,568.54,391.39,568.49Z"></path><path class="cls-1" d="M73.34,378.64c2.4,5.9,4.55,11.2,6.85,16.84-4.76.69-9.13.23-14,.34A140.36,140.36,0,0,1,73.34,378.64Z"></path></g></g></svg> 