<?xml version="1.0" encoding="UTF-8"?> <svg xmlns="http://www.w3.org/2000/svg" id="Layer_1" data-name="Layer 1" viewBox="0 0 50 49"><defs><style>.cls-1{fill:#fff;}.cls-2{fill:#12100b;fill-rule:evenodd;}.cls-3{fill:#172729;}</style></defs><rect class="cls-1" width="50" height="49"></rect><path class="cls-2" d="M32.924,33.584A4.7,4.7,0,0,1,30.3,36.305c-.645,0-.046-1.292-.968-1.292-.6,0-1.614.646-1.614,1.338a.658.658,0,0,0,.738.645c.6,0,.507-.784.876-.784.323,0,.231.6,1.015.6.415,0,.691-.415.922-.415.046,0,.138.046.138.23,0,.323-.369,1.291-.369,1.522a.305.305,0,0,0,.323.277.253.253,0,0,0,.277-.185c.092-.323.184-.645.276-.922,1.338-4.288,2.49-2.951,2.49-3.873,0-.323-.276-.461-.6-.461A1.045,1.045,0,0,0,32.924,33.584Zm-4.519,2.721c-.092,0-.092-.046-.092-.093,0-.23.415-.553.6-.553.092,0,.138.046.138.092C29,35.8,28.589,36.305,28.405,36.305Z"></path><path class="cls-2" d="M24.9,34.968c-.138.092.092.507.277.415a3.859,3.859,0,0,1,.968-.369c.138,0,.184.046.184.138,0,.323-1.613,1.107-1.613,1.891,0,.184.184.461.691.461.83,0,1.8-.369,1.8-.692a.148.148,0,0,0-.139-.138A10.5,10.5,0,0,1,25.684,37c-.138,0-.277-.046-.277-.138,0-.461,1.568-1.153,1.568-1.706a.648.648,0,0,0-.692-.6A2.664,2.664,0,0,0,24.9,34.968Z"></path><path class="cls-2" d="M41.039,35.567c-.138.507-1.06.645-1.567.645s-.508-.138-.6-.645c-.092-.462-.323-.6-.553-.6a.958.958,0,0,0-.6.415c-.368.369-.737.83-.968.83a.373.373,0,0,1-.323-.415c0-.184.139-.277.139-.461,0-.138-.093-.415-.277-.415-.323,0-.83.553-.922.646-.277.276-.646.783-1.015.783-.553,0-.046-.876-.738-.876a.5.5,0,0,0-.507.461c0,.277.185.415.369.6.231.23.369.415.646.415.876,0,1.06-.968,1.521-.968a.258.258,0,0,1,.231.276c.046.323.369.461.784.461.784,0,.784-.691,1.245-.691.645,0,.507.737,1.245.737.277,0,.323-.046.784-.092a3.433,3.433,0,0,0,1.2-.23c.553-.323.276-1.291.83-1.291.184,0,.322.138.322.461,0,.369-.138,1.291-2.075,2.3-.184.092-.322.231-.322.369s.138.185.23.185c.461,0,2.813-1.291,2.813-2.767,0-.83-.369-1.107-.922-1.107C41.224,34.6,41.178,35.1,41.039,35.567Z"></path><path class="cls-2" d="M24.3,29.941c-1.476,0-4.15.969-7.009,5.026-1.937.554-8.623,2.629-8.623,4.15,0,.323.461.738,1.153.738.322,0,.553-.138.553-.322,0-.369-.83-.323-.83-.6,0-.692,3.92-2.167,7.286-3.182-1.291,2.49-.554,5.534,2.49,5.534a7.739,7.739,0,0,0,3.781-1.43.154.154,0,1,0-.138-.276,7.629,7.629,0,0,1-3.32,1.06c-3.274,0-2.906-3.274-1.8-5.21a14.788,14.788,0,0,1,3.966-.646,2.515,2.515,0,0,1,1.66.507c.23.092.369-.092.23-.323-.23-.322-.645-.83-2.167-.83a15.19,15.19,0,0,0-3.228.462c1.384-1.891,3.689-4.2,6.133-4.2.692,0,1.66.231,1.66-.092C26.053,30.033,24.67,29.941,24.3,29.941Z"></path><path class="cls-3" d="M8.9,7.715h2.4v.646H9.637v1.06h1.337v.6H9.637v1.107h1.752v.6H8.9Z"></path><path class="cls-3" d="M12.174,8.868h.691V9.56a.984.984,0,0,1,.922-.738h.139v.692h-.185a.815.815,0,0,0-.784.6,1.572,1.572,0,0,0-.046.461v1.153h-.737Z"></path><path class="cls-3" d="M16,9.928h.092V9.882c0-.369-.23-.507-.553-.507a1.492,1.492,0,0,0-.784.277l-.323-.508a1.992,1.992,0,0,1,1.153-.368,1.059,1.059,0,0,1,1.2,1.152v1.8h-.645v-.415a.96.96,0,0,1-.877.507.907.907,0,0,1-.968-.922C14.248,9.974,15.493,9.928,16,9.928Zm-.553,1.338a.745.745,0,0,0,.645-.738v-.046h-.138c-.369,0-.968.046-.968.461C14.986,11.081,15.124,11.266,15.447,11.266Z"></path><path class="cls-3" d="M17.753,10.9a1.214,1.214,0,0,0,.784.323c.184,0,.369-.092.369-.277,0-.415-1.43-.369-1.43-1.291,0-.553.461-.83,1.107-.83a1.41,1.41,0,0,1,.968.323l-.276.553a1.163,1.163,0,0,0-.692-.231c-.184,0-.369.093-.369.277,0,.415,1.43.369,1.43,1.291,0,.461-.415.876-1.107.876A1.524,1.524,0,0,1,17.43,11.5Z"></path><path class="cls-3" d="M20.335,8.868h.692v.507a1.121,1.121,0,0,1,.922-.6.735.735,0,0,1,.83.6,1.106,1.106,0,0,1,.968-.6c.6,0,.969.322.969,1.106v1.845h-.738V10.021c0-.323-.046-.6-.415-.6a.737.737,0,0,0-.692.646.9.9,0,0,0-.046.369v1.291h-.737V10.021c0-.323-.047-.6-.416-.6a.736.736,0,0,0-.691.646.9.9,0,0,0-.046.369v1.291H20.2V8.868"></path><path class="cls-3" d="M25.592,8.868h.738v1.706c0,.369.092.6.461.6a.892.892,0,0,0,.83-.969V8.868h.738v2.9h-.692V11.22a1.072,1.072,0,0,1-1.015.6c-.6,0-1.014-.322-1.014-1.106V8.868"></path><path class="cls-3" d="M29.281,10.9a1.214,1.214,0,0,0,.784.323c.184,0,.369-.092.369-.277,0-.415-1.43-.369-1.43-1.291,0-.553.461-.83,1.107-.83a1.41,1.41,0,0,1,.968.323L30.8,9.7a1.163,1.163,0,0,0-.692-.231c-.184,0-.369.093-.369.277,0,.415,1.43.369,1.43,1.291,0,.461-.415.876-1.107.876a1.524,1.524,0,0,1-1.107-.415Z"></path><path class="cls-3" d="M8.991,16.845a1.567,1.567,0,0,0,1.015.415c.323,0,.6-.138.6-.507,0-.738-1.89-.6-1.89-1.845a1.22,1.22,0,0,1,1.337-1.152,1.761,1.761,0,0,1,1.2.415l-.323.6a1.37,1.37,0,0,0-.876-.369c-.323,0-.6.185-.6.461,0,.738,1.89.554,1.89,1.845a1.229,1.229,0,0,1-1.337,1.2,1.975,1.975,0,0,1-1.383-.554Z"></path><path class="cls-3" d="M13.418,14.909a1.524,1.524,0,0,1,1.107.415l-.323.507a1.177,1.177,0,0,0-.738-.323.847.847,0,0,0-.876.876.9.9,0,0,0,.923.922,1.191,1.191,0,0,0,.83-.369l.276.508a1.673,1.673,0,0,1-1.2.461,1.5,1.5,0,1,1,0-3Z"></path><path class="cls-3" d="M15.263,13.848H16v1.614a1.127,1.127,0,0,1,1.015-.553c.645,0,1.014.323,1.014,1.106V17.86h-.738V16.154c0-.369-.092-.6-.461-.6a.791.791,0,0,0-.784.6.9.9,0,0,0-.046.369V17.86h-.737V13.848"></path><path class="cls-3" d="M20.243,14.909a1.556,1.556,0,0,1,1.614,1.521,1.517,1.517,0,0,1-1.568,1.522,1.557,1.557,0,0,1-1.614-1.522A1.465,1.465,0,0,1,20.243,14.909Zm0,2.443a.886.886,0,0,0,.876-.922.86.86,0,0,0-.876-.922.887.887,0,0,0-.876.922A.86.86,0,0,0,20.243,17.352Z"></path><path class="cls-3" d="M23.886,14.909A1.556,1.556,0,0,1,25.5,16.43a1.517,1.517,0,0,1-1.568,1.522,1.557,1.557,0,0,1-1.614-1.522A1.516,1.516,0,0,1,23.886,14.909Zm0,2.443a.886.886,0,0,0,.876-.922.86.86,0,0,0-.876-.922.923.923,0,0,0,0,1.844Z"></path><path class="cls-3" d="M26.145,13.848h.738v3.044c0,.322.092.415.277.415h.092v.645h-.231c-.415,0-.876-.092-.876-.922V13.848"></path><path class="cls-3" d="M30.756,14.909A1.556,1.556,0,0,1,32.37,16.43,1.517,1.517,0,0,1,30.8,17.952a1.556,1.556,0,0,1-1.613-1.522A1.516,1.516,0,0,1,30.756,14.909Zm0,2.443a.886.886,0,0,0,.876-.922.86.86,0,0,0-.876-.922.887.887,0,0,0-.876.922A.915.915,0,0,0,30.756,17.352Z"></path><path class="cls-3" d="M33.2,15.6h-.368v-.554H33.2v-.138c0-.969.784-1.061,1.2-1.061h.231v.6h-.138c-.185,0-.554.046-.554.461V15h.6v.553h-.6V17.86H33.2V15.6"></path><path class="cls-3" d="M8.9,19.981h2.4v.646H9.637v1.06h1.337v.6H9.637v1.107h1.752v.6H8.9Z"></path><path class="cls-3" d="M13.51,21.042a1.524,1.524,0,0,1,1.107.415l-.323.507a1.177,1.177,0,0,0-.738-.323.847.847,0,0,0-.876.876.9.9,0,0,0,.923.922,1.192,1.192,0,0,0,.83-.368l.276.507a1.673,1.673,0,0,1-1.2.461,1.5,1.5,0,1,1,0-3Z"></path><path class="cls-3" d="M16.738,21.042a1.556,1.556,0,0,1,1.614,1.521,1.516,1.516,0,0,1-1.567,1.522,1.556,1.556,0,0,1-1.614-1.522A1.516,1.516,0,0,1,16.738,21.042Zm0,2.444a.887.887,0,0,0,.876-.923.86.86,0,0,0-.876-.922.887.887,0,0,0-.876.922A.916.916,0,0,0,16.738,23.486Z"></path><path class="cls-3" d="M19.044,21.134h.692v.507a1.182,1.182,0,0,1,1.014-.6c.646,0,1.014.322,1.014,1.106v1.845h-.737V22.287c0-.369-.093-.6-.461-.6a.791.791,0,0,0-.784.6,1.013,1.013,0,0,0-.046.368v1.338h-.692Z"></path><path class="cls-3" d="M24.024,21.042a1.556,1.556,0,0,1,1.614,1.521,1.517,1.517,0,0,1-1.568,1.522,1.557,1.557,0,0,1-1.614-1.522A1.49,1.49,0,0,1,24.024,21.042Zm0,2.444a.887.887,0,0,0,.876-.923.86.86,0,0,0-.876-.922.887.887,0,0,0-.876.922A.86.86,0,0,0,24.024,23.486Z"></path><path class="cls-3" d="M26.284,21.134h.691v.507a1.124,1.124,0,0,1,.923-.6.735.735,0,0,1,.83.6,1.1,1.1,0,0,1,.968-.6c.6,0,.968.322.968,1.106v1.845h-.737V22.287c0-.323-.046-.6-.415-.6a.736.736,0,0,0-.692.646.9.9,0,0,0-.046.369v1.291h-.738V22.287c0-.323-.046-.6-.369-.6a.737.737,0,0,0-.692.646.9.9,0,0,0-.046.369v1.291h-.737V21.134"></path><path class="cls-3" d="M31.586,19.981h.738v.646h-.738Zm0,1.153h.738v2.905h-.738Z"></path><path class="cls-3" d="M34.583,21.042a1.524,1.524,0,0,1,1.107.415l-.323.507a1.177,1.177,0,0,0-.738-.323.847.847,0,0,0-.876.876.9.9,0,0,0,.923.922,1.192,1.192,0,0,0,.83-.368l.276.507a1.673,1.673,0,0,1-1.2.461,1.5,1.5,0,1,1,0-3Z"></path><path class="cls-3" d="M36.52,23.163a1.214,1.214,0,0,0,.784.323c.184,0,.369-.092.369-.277,0-.415-1.43-.369-1.43-1.291,0-.553.461-.83,1.107-.83a1.41,1.41,0,0,1,.968.323l-.276.553a1.163,1.163,0,0,0-.692-.231c-.184,0-.369.093-.369.277,0,.415,1.43.369,1.43,1.291,0,.461-.415.876-1.107.876a1.524,1.524,0,0,1-1.107-.415Z"></path></svg> 