<?xml version="1.0" encoding="UTF-8"?> <svg xmlns="http://www.w3.org/2000/svg" xmlns:xlink="http://www.w3.org/1999/xlink" id="Layer_1" data-name="Layer 1" viewBox="0 0 141.67 141.73"><defs><style>.cls-1{fill:none;}.cls-2{clip-path:url(#clip-path);}.cls-3{fill:#00262b;}.cls-4{clip-path:url(#clip-path-2);}.cls-5,.cls-6{fill:#fff;}.cls-6{fill-rule:evenodd;}</style><clipPath id="clip-path" transform="translate(-0.06 -0.27)"><rect class="cls-1" x="0.06" y="0.27" width="141.67" height="141.73"></rect></clipPath><clipPath id="clip-path-2" transform="translate(-0.06 -0.27)"><rect class="cls-1" width="142" height="142"></rect></clipPath></defs><g class="cls-2"><rect class="cls-3" width="141.67" height="141.73"></rect></g><g class="cls-4"><polyline class="cls-5" points="17.119 19.816 24.779 19.816 24.779 22.381 20.112 22.381 20.112 24.604 23.838 24.604 23.838 27.169 20.112 27.169 20.112 29.477 25.019 29.477 25.019 32.041 17.119 32.041 17.119 19.816"></polyline><path class="cls-5" d="M27.236,23.505h2.839v1.489a4.7,4.7,0,0,1-.034.547h.034a3.054,3.054,0,0,1,2.8-2.189,2.011,2.011,0,0,1,.342.034v2.907a3.1,3.1,0,0,0-.6-.052,2.222,2.222,0,0,0-2.273,1.539,3.979,3.979,0,0,0-.154,1.2v3.334H27.236V23.505" transform="translate(-0.06 -0.27)"></path><path class="cls-5" d="M39.38,26.823H39.5v-.155c0-.735-.563-.974-1.3-.974a5.263,5.263,0,0,0-2.377.837L34.8,24.446A6.657,6.657,0,0,1,38.49,23.3c2.481,0,3.968,1.35,3.968,3.59v5.42h-2.7v-.529a4.681,4.681,0,0,1,.034-.548h-.034a2.74,2.74,0,0,1-2.5,1.283,2.818,2.818,0,0,1-2.993-2.838c0-2.566,3.745-2.856,5.113-2.856m-1.3,3.437A1.633,1.633,0,0,0,39.534,28.7v-.188H39.26c-.941,0-2.018.274-2.018,1.01C37.242,29.935,37.5,30.26,38.081,30.26Z" transform="translate(-0.06 -0.27)"></path><path class="cls-5" d="M45.436,29.233a3.7,3.7,0,0,0,2.24.89c.444,0,.871-.12.871-.411,0-.769-4.12-.855-4.12-3.727,0-1.659,1.59-2.684,3.625-2.684a4.605,4.605,0,0,1,3.094,1.009l-1.008,2.1a3.518,3.518,0,0,0-2.086-.718c-.445,0-.873.12-.873.428,0,.667,4.121.769,4.121,3.608,0,1.5-1.333,2.787-3.607,2.787a5.3,5.3,0,0,1-3.523-1.3l1.266-1.984" transform="translate(-0.06 -0.27)"></path><path class="cls-5" d="M53.252,23.505h2.839v.77a4.675,4.675,0,0,1-.034.547h.034A3.131,3.131,0,0,1,58.707,23.3a2.546,2.546,0,0,1,2.461,1.487H61.2A3.4,3.4,0,0,1,64.024,23.3c1.607,0,2.855.871,2.855,3.3v5.71H63.922V27.1c0-.649-.12-1.111-.685-1.111-.94,0-1.435.683-1.623,1.659a4.871,4.871,0,0,0-.069,1.024v3.643H58.587V27.1c0-.649-.119-1.111-.684-1.111-.924,0-1.4.65-1.607,1.589a5.615,5.615,0,0,0-.085,1.094v3.643H53.252V23.505" transform="translate(-0.06 -0.27)"></path><path class="cls-5" d="M69.178,23.505h2.957v5.163c0,.823.325,1.165.94,1.165,1.266,0,1.864-1.113,1.864-2.429v-3.9H77.9v8.806H75.059v-.769A4.675,4.675,0,0,1,75.093,31h-.034a3.051,3.051,0,0,1-2.753,1.522c-1.744,0-3.128-.821-3.128-3.3V23.505" transform="translate(-0.06 -0.27)"></path><path class="cls-5" d="M81.014,29.233a3.7,3.7,0,0,0,2.24.89c.444,0,.872-.12.872-.411,0-.769-4.121-.855-4.121-3.727,0-1.659,1.59-2.684,3.625-2.684a4.609,4.609,0,0,1,3.095,1.009l-1.009,2.1a3.518,3.518,0,0,0-2.086-.718c-.444,0-.872.12-.872.428,0,.667,4.121.769,4.121,3.608,0,1.5-1.334,2.787-3.608,2.787a5.3,5.3,0,0,1-3.523-1.3l1.266-1.984" transform="translate(-0.06 -0.27)"></path><path class="cls-5" d="M17.008,38.551H20V46.28a1.877,1.877,0,0,0,2.12,1.966,1.877,1.877,0,0,0,2.12-1.966V38.551h2.992V46.28c0,2.752-2.017,4.7-5.095,4.7-3.112,0-5.13-1.949-5.13-4.7V38.551" transform="translate(-0.06 -0.27)"></path><path class="cls-5" d="M29.887,41.971h2.839v.77a4.537,4.537,0,0,1-.035.546h.035a3.1,3.1,0,0,1,2.8-1.521c1.779,0,3.164.82,3.164,3.3v5.711H35.734V45.614c0-.822-.324-1.164-.974-1.164a1.731,1.731,0,0,0-1.744,1.266,3.552,3.552,0,0,0-.171,1.162v3.9H29.887V41.971" transform="translate(-0.06 -0.27)"></path><path class="cls-5" d="M41.108,41.971h2.958v8.806H41.108Zm.034-3.42h2.89v2.308h-2.89Z" transform="translate(-0.06 -0.27)"></path><path class="cls-5" d="M45.47,41.971h3.113l1.367,4.685a14.914,14.914,0,0,1,.324,1.522h.034s.155-.941.326-1.522l1.351-4.685h3.128l-2.992,8.806H48.514L45.47,41.971" transform="translate(-0.06 -0.27)"></path><path class="cls-5" d="M60.5,41.766a3.909,3.909,0,0,1,4.069,4.258c0,.29-.069.922-.069.922H58.948A1.967,1.967,0,0,0,61,48.52a4.61,4.61,0,0,0,2.427-.89l1.1,2.069a5.942,5.942,0,0,1-3.761,1.282,4.566,4.566,0,0,1-4.84-4.616,4.384,4.384,0,0,1,4.583-4.6M61.6,45.254a1.2,1.2,0,0,0-1.162-1.265,1.445,1.445,0,0,0-1.421,1.265Z" transform="translate(-0.06 -0.27)"></path><path class="cls-5" d="M66.525,41.971h2.839V43.46a4.639,4.639,0,0,1-.034.545h.034a3.055,3.055,0,0,1,2.8-2.188,2.011,2.011,0,0,1,.342.034v2.906a3.158,3.158,0,0,0-.6-.051,2.222,2.222,0,0,0-2.274,1.54,3.967,3.967,0,0,0-.154,1.2v3.335H66.525V41.971" transform="translate(-0.06 -0.27)"></path><path class="cls-5" d="M74.8,47.7a3.705,3.705,0,0,0,2.24.888c.444,0,.871-.119.871-.409,0-.77-4.12-.855-4.12-3.728,0-1.658,1.59-2.684,3.625-2.684a4.612,4.612,0,0,1,3.095,1.008l-1.009,2.1a3.524,3.524,0,0,0-2.086-.717c-.444,0-.872.119-.872.427,0,.667,4.121.769,4.121,3.608,0,1.5-1.334,2.786-3.608,2.786a5.308,5.308,0,0,1-3.523-1.3L74.8,47.7" transform="translate(-0.06 -0.27)"></path><path class="cls-5" d="M82.62,41.971h2.958v8.806H82.62Zm.034-3.42h2.89v2.308h-2.89Z" transform="translate(-0.06 -0.27)"></path><path class="cls-5" d="M88.556,44.433H87.427V42.125h1.214V39.594h2.873v2.531H93.36v2.308H91.514v2.7c0,.992,1.008,1.13,1.574,1.13a3.677,3.677,0,0,0,.391-.018v2.565a5.681,5.681,0,0,1-.8.051c-1.4,0-4.121-.376-4.121-3.334V44.433" transform="translate(-0.06 -0.27)"></path><path class="cls-5" d="M95.415,51.579a1.956,1.956,0,0,0,.906.326,1.405,1.405,0,0,0,1.419-.889l.171-.41-3.744-8.635h3.351l1.3,4.053c.154.478.325,1.367.325,1.367h.034s.171-.838.292-1.316l1.11-4.1h3.233l-3.61,9.746a3.791,3.791,0,0,1-3.675,2.651,3.961,3.961,0,0,1-2.052-.617l.941-2.172" transform="translate(-0.06 -0.27)"></path><path class="cls-5" d="M17.179,57.017h4.258a6.319,6.319,0,0,1,2.375.29,3.555,3.555,0,0,1,2.258,3.556A3.723,3.723,0,0,1,24.241,64.2v.033a7.066,7.066,0,0,1,.461.735l2.377,4.275H23.745l-2.172-4.121h-1.4v4.121H17.179V57.017m4.292,5.54a1.4,1.4,0,0,0,1.556-1.506c0-.923-.342-1.469-1.847-1.469H20.172v2.975Z" transform="translate(-0.06 -0.27)"></path><path class="cls-5" d="M33.136,60.231a4.689,4.689,0,0,1,5.01,4.633c0,2.753-2.223,4.583-4.993,4.583s-4.993-1.83-4.993-4.583a4.679,4.679,0,0,1,4.976-4.633m.017,6.754a1.993,1.993,0,0,0,2-2.121,2.008,2.008,0,1,0-4,0A1.993,1.993,0,0,0,33.153,66.985Z" transform="translate(-0.06 -0.27)"></path><path class="cls-5" d="M40.475,62.9H39.347V60.59h1.214V58.06h2.873v2.53H45.28V62.9H43.434v2.7c0,.993,1.008,1.13,1.573,1.13a3.71,3.71,0,0,0,.392-.018v2.565a5.687,5.687,0,0,1-.8.051c-1.4,0-4.121-.375-4.121-3.334V62.9" transform="translate(-0.06 -0.27)"></path><path class="cls-5" d="M47.915,62.9H46.787V60.59H48V58.06h2.873v2.53H52.72V62.9H50.873v2.7c0,.993,1.009,1.13,1.574,1.13a3.744,3.744,0,0,0,.393-.018v2.565a5.73,5.73,0,0,1-.8.051c-1.4,0-4.121-.375-4.121-3.334V62.9" transform="translate(-0.06 -0.27)"></path><path class="cls-5" d="M58.862,60.231a3.909,3.909,0,0,1,4.068,4.258c0,.29-.068.923-.068.923H57.305a1.967,1.967,0,0,0,2.052,1.573,4.619,4.619,0,0,0,2.428-.889l1.094,2.069a5.946,5.946,0,0,1-3.761,1.282,4.567,4.567,0,0,1-4.84-4.616,4.385,4.385,0,0,1,4.584-4.6m1.094,3.488a1.2,1.2,0,0,0-1.163-1.265,1.443,1.443,0,0,0-1.419,1.265Z" transform="translate(-0.06 -0.27)"></path><path class="cls-5" d="M64.883,60.436h2.838v1.488a4.675,4.675,0,0,1-.034.547h.034a3.056,3.056,0,0,1,2.8-2.189,1.956,1.956,0,0,1,.342.035v2.906a3.112,3.112,0,0,0-.6-.052A2.223,2.223,0,0,0,68,64.711a3.97,3.97,0,0,0-.154,1.2v3.334H64.883V60.436" transform="translate(-0.06 -0.27)"></path><path class="cls-5" d="M76,60.231c1.779,0,2.309.7,2.309.7h.033s-.017-.172-.017-.394V57.017h2.958V69.242h-2.77v-.581c0-.274.017-.5.017-.5H78.5a2.938,2.938,0,0,1-2.547,1.282c-2.393,0-3.967-1.881-3.967-4.616,0-2.787,1.676-4.6,4.018-4.6M76.685,67c.888,0,1.725-.649,1.725-2.171,0-1.06-.562-2.1-1.725-2.1-.924,0-1.728.751-1.728,2.1C74.957,66.147,75.658,67,76.685,67Z" transform="translate(-0.06 -0.27)"></path><path class="cls-5" d="M88.264,63.753h.119V63.6c0-.735-.565-.974-1.3-.974a5.257,5.257,0,0,0-2.376.837l-1.026-2.086a6.659,6.659,0,0,1,3.693-1.145c2.48,0,3.967,1.351,3.967,3.591v5.42h-2.7v-.53a4.675,4.675,0,0,1,.034-.547h-.034a2.741,2.741,0,0,1-2.5,1.282,2.817,2.817,0,0,1-2.993-2.838c0-2.566,3.746-2.856,5.114-2.856m-1.3,3.436a1.632,1.632,0,0,0,1.453-1.556v-.188h-.273c-.941,0-2.018.275-2.018,1.011C86.126,66.866,86.382,67.189,86.964,67.189Z" transform="translate(-0.06 -0.27)"></path><path class="cls-5" d="M93.738,60.436h2.839v.77a4.675,4.675,0,0,1-.034.547h.034a3.131,3.131,0,0,1,2.615-1.522,2.552,2.552,0,0,1,2.463,1.487h.033a3.405,3.405,0,0,1,2.823-1.487c1.606,0,2.854.872,2.854,3.3v5.711h-2.957V64.026c0-.648-.119-1.11-.684-1.11-.941,0-1.437.683-1.624,1.658a4.881,4.881,0,0,0-.069,1.025v3.643H99.073V64.026c0-.648-.12-1.11-.684-1.11-.923,0-1.4.649-1.607,1.589A5.612,5.612,0,0,0,96.7,65.6v3.643H93.738V60.436" transform="translate(-0.06 -0.27)"></path><path class="cls-6" d="M91.192,100.79c-1.9,5.279-7.248,8.714-8.395,8.714-2.09,0-.18-4.12-3.095-4.12-1.963,0-5.22,2.092-5.22,4.292a2.086,2.086,0,0,0,2.341,2.017c1.979,0,1.567-2.524,2.749-2.524,1.035,0,.711,1.918,3.2,1.918,1.374,0,2.233-1.372,2.954-1.372.2,0,.471.115.471.718,0,1-1.153,4.133-1.152,4.949a1.031,1.031,0,0,0,1.009.918.819.819,0,0,0,.869-.538c.287-1.054.556-2.026.833-2.922,4.244-13.768,8.068-9.515,8.068-12.5,0-1.064-.875-1.448-1.938-1.448a3.074,3.074,0,0,0-2.7,1.893m-14.558,8.677c-.282,0-.35-.109-.35-.308,0-.784,1.311-1.841,1.97-1.841.229,0,.4.105.4.284,0,.291-1.409,1.865-2.017,1.865" transform="translate(-0.06 -0.27)"></path><path class="cls-6" d="M65.316,105.254c-.394.281.332,1.593.833,1.363a10.118,10.118,0,0,1,3.112-1.2c.445,0,.653.206.653.468,0,.965-5.212,3.62-5.212,6.036,0,.581.531,1.436,2.225,1.436,2.654,0,5.808-1.237,5.808-2.277a.468.468,0,0,0-.472-.389c-.413,0-3.06,1.094-4.483,1.094-.458,0-.821-.188-.821-.5,0-1.47,4.977-3.752,4.977-5.482a2.071,2.071,0,0,0-2.26-1.984,8.913,8.913,0,0,0-4.36,1.441" transform="translate(-0.06 -0.27)"></path><path class="cls-6" d="M117.316,107.124c-.415,1.571-3.374,2.017-4.989,2.017s-1.595-.449-1.939-2.093c-.325-1.553-.975-1.939-1.835-1.939-.636,0-1.271.608-1.983,1.267-1.232,1.143-2.437,2.694-3.092,2.694-.557,0-.987-.648-.987-1.3,0-.594.464-.84.464-1.5,0-.462-.255-1.367-.934-1.367-1.028,0-2.645,1.788-2.93,2.072-.841.843-2.01,2.517-3.215,2.517-1.8,0-.159-2.811-2.313-2.811A1.6,1.6,0,0,0,91.99,108.2c0,.85.551,1.313,1.159,1.967.686.739,1.209,1.373,2.146,1.373,2.8,0,3.426-3.074,4.87-3.074.48,0,.7.438.749.854.128,1.046,1.249,1.541,2.547,1.541,2.456,0,2.508-2.175,4.028-2.175,2.07,0,1.688,2.446,3.989,2.446a17.07,17.07,0,0,0,2.452-.336,12.282,12.282,0,0,0,3.869-.784c1.73-1.037.823-4.108,2.624-4.108.615,0,1.083.415,1.083,1.43,0,1.257-.441,4.184-6.694,7.39-.641.342-1.083.761-1.083,1.127,0,.381.388.593.755.593,1.411,0,9.048-4.126,9.048-8.827,0-2.706-1.183-3.532-2.914-3.532-2.764,0-2.923,1.609-3.3,3.037" transform="translate(-0.06 -0.27)"></path><path class="cls-6" d="M63.488,89.069c-4.685,0-13.352,3.088-22.512,16.228-6.248,1.769-27.762,8.425-27.762,13.363,0,1.01,1.522,2.438,3.717,2.438,1.048,0,1.849-.394,1.849-.979,0-1.143-2.733-1.081-2.733-1.9,0-2.207,12.554-6.983,23.387-10.224-4.167,7.95-1.848,17.842,7.981,17.842,4.667,0,9.321-2.852,12.17-4.584a.494.494,0,1,0-.518-.839c-2.933,1.52-6.721,3.437-10.727,3.437-10.561,0-9.363-10.492-5.776-16.767a48.709,48.709,0,0,1,12.778-2.007c3.669,0,4.635,1.391,5.347,1.632s1.2-.343.741-.968c-.728-1-2.08-2.706-6.961-2.706a52.336,52.336,0,0,0-10.346,1.448c4.482-6.029,11.8-13.472,19.717-13.472,2.25,0,5.268.794,5.268-.283,0-1.435-4.4-1.664-5.62-1.663" transform="translate(-0.06 -0.27)"></path></g></svg> 